<svg width="22" height="26" viewBox="0 0 22 26" fill="none" xmlns="http://www.w3.org/2000/svg">
<path d="M1 23V13.01C1 13.0045 1.00447 13 1.00999 13C3.7659 13 6 10.7659 6 8.00999V7.01199C6 7.00537 6.00537 7 6.01199 7H15.988C15.9946 7 16 7.00537 16 7.01199V8.00999C16 10.7659 18.2341 13 20.99 13C20.9955 13 21 13.0045 21 13.01V23C21 24.1046 20.1046 25 19 25H3C1.89543 25 1 24.1046 1 23Z" stroke="#666666" stroke-width="1.5" stroke-linecap="round"/>
<path d="M7 7V5C7 2.79086 8.79086 1 11 1V1C13.2091 1 15 2.79086 15 5V7" stroke="#666666" stroke-width="1.5" stroke-linecap="round"/>
<circle cx="11" cy="16" r="3.25" stroke="#666666" stroke-width="1.5"/>
</svg>
