<svg width="28" height="25" viewBox="0 0 28 25" fill="none" xmlns="http://www.w3.org/2000/svg">
<path d="M1 6.39201V3C1 1.89543 1.89543 1 3 1H23C24.1046 1 25 1.89543 25 3V17C25 18.1046 24.1046 19 23 19H3C1.89543 19 1 18.1046 1 17V12.708C1 12.7036 1.00358 12.7 1.00799 12.7H1.85C3.5897 12.7 5 11.2897 5 9.55C5 7.8103 3.5897 6.4 1.85 6.4H1.00799C1.00358 6.4 1 6.39642 1 6.39201Z" stroke="#666666" stroke-width="1.5" stroke-linecap="round"/>
<path d="M8.63623 4V16" stroke="#666666" stroke-linecap="round" stroke-dasharray="3 3"/>
<circle cx="22" cy="17" r="5" fill="white"/>
<path d="M22 22C24.7614 22 27 19.7614 27 17C27 14.2386 24.7614 12 22 12C19.2386 12 17 14.2386 17 17C17 17.7111 17.1484 18.3875 17.416 19" stroke="#666666" stroke-width="1.5" stroke-linecap="round"/>
<path d="M21.9319 19.9999L20.5647 22.6251L22.9671 23.8636" stroke="#666666" stroke-width="1.5" stroke-linecap="round" stroke-linejoin="round"/>
<path d="M21.5 15V17.5H24" stroke="#666666" stroke-linecap="round" stroke-linejoin="round"/>
</svg>
