<svg width="26" height="26" viewBox="0 0 26 26" fill="none" xmlns="http://www.w3.org/2000/svg">
<path d="M6 3.5H2C1.44772 3.5 1 3.94772 1 4.5V24C1 24.5523 1.44772 25 2 25H19.5C20.0523 25 20.5 24.5523 20.5 24V4.5C20.5 3.94772 20.0523 3.5 19.5 3.5H16" stroke="#666666" stroke-width="1.5" stroke-linecap="round" stroke-linejoin="round"/>
<path d="M6 4V2C6 1.44772 6.44772 1 7 1H15C15.5523 1 16 1.44772 16 2V4C16 4.55228 15.5523 5 15 5H7C6.44772 5 6 4.55228 6 4Z" stroke="#666666" stroke-width="1.5" stroke-linecap="round" stroke-linejoin="round"/>
<path d="M5 10H15M5 14H12" stroke="#666666" stroke-width="1.5" stroke-linecap="round" stroke-linejoin="round"/>
<path d="M12.3934 17.6066L21.2929 8.70711C21.6834 8.31658 22.3166 8.31658 22.7071 8.70711L24.1213 10.1213C24.5118 10.5118 24.5118 11.145 24.1213 11.5355L15.2218 20.435C15.0343 20.6226 14.7799 20.7279 14.5147 20.7279L13.1005 20.7279C12.5482 20.7279 12.1005 20.2802 12.1005 19.7279L12.1005 18.3137C12.1005 18.0485 12.2059 17.7941 12.3934 17.6066Z" fill="white" stroke="#666666" stroke-width="1.5" stroke-linecap="round" stroke-linejoin="round"/>
</svg>
