<svg width="48" height="48" viewBox="0 0 48 48" fill="none" xmlns="http://www.w3.org/2000/svg">
<path d="M9 26.5V19.021C9 19.0094 9.0094 19 9.021 19H35.979C35.9906 19 36 19.0094 36 19.021V26.5C36 33.9558 29.9558 40 22.5 40C15.0442 40 9 33.9558 9 26.5Z" stroke="#00B375" stroke-width="2" stroke-linecap="round" stroke-linejoin="round"/>
<path d="M36 21H37C39.2091 21 41 22.7909 41 25V25C41 27.2091 39.2091 29 37 29H36" stroke="#00B375" stroke-width="2" stroke-linecap="round"/>
<path d="M16.3691 7.72974H18.1855L20.1484 12.5247H20.2266L22.1895 7.72974H24.0059V14.8H22.5801V10.1711H22.5215L20.6758 14.7708H19.6992L17.8535 10.1516H17.7949V14.8H16.3691V7.72974ZM26.0176 16.7922C25.7344 16.7922 25.4707 16.7825 25.2852 16.7629V15.6399C25.4707 15.6497 25.6855 15.6594 25.8711 15.6594C26.1543 15.6594 26.3887 15.6301 26.5645 15.1711L26.6523 14.9465L24.748 9.49731H26.2617L27.375 13.4036H27.4336L28.5566 9.49731H30.0898L28.0195 15.386C27.7168 16.2356 27.1406 16.7922 26.0176 16.7922Z" fill="#00B375"/>
</svg>
