<svg width="24" height="23" viewBox="0 0 24 23" fill="none" xmlns="http://www.w3.org/2000/svg">
<path d="M4 6L6.5274 21.1644C6.60776 21.6466 7.02495 22 7.51379 22H16.4862C16.975 22 17.3922 21.6466 17.4726 21.1644L20 6" stroke="#666666" stroke-width="1.5" stroke-linecap="round"/>
<path d="M1.49289 4.65575L2.35245 2.31149C2.6413 1.52372 3.39116 1 4.23021 1H20.4682C20.8878 1 21.2627 1.26186 21.4071 1.65575L22.5071 4.65575C22.7464 5.30836 22.2633 6 21.5682 6H2.43177C1.73667 6 1.2536 5.30836 1.49289 4.65575Z" stroke="#666666" stroke-width="1.5" stroke-linecap="round"/>
<path d="M14 13L12 9L8 17H16L15.3333 15.6667" stroke="#666666" stroke-linecap="round" stroke-linejoin="round"/>
<path d="M12.2437 12.4729L13.9511 13.2731L14.7512 11.5657" stroke="#666666" stroke-linecap="round" stroke-linejoin="round"/>
</svg>
