<svg width="26" height="22" viewBox="0 0 26 22" fill="none" xmlns="http://www.w3.org/2000/svg">
<path d="M12.6685 5.94795L4.667 13.0667V20.7499C4.667 20.9489 4.74016 21.1396 4.87038 21.2803C5.0006 21.421 5.17722 21.5 5.36139 21.5L10.2247 21.4864C10.4083 21.4854 10.584 21.4059 10.7135 21.2654C10.843 21.1248 10.9156 20.9346 10.9156 20.7363V16.2494C10.9156 16.0505 10.9888 15.8597 11.119 15.719C11.2493 15.5784 11.4259 15.4993 11.61 15.4993H14.3876C14.5718 15.4993 14.7484 15.5784 14.8786 15.719C15.0088 15.8597 15.082 16.0505 15.082 16.2494V20.733C15.0817 20.8317 15.0995 20.9295 15.1342 21.0208C15.169 21.1121 15.2201 21.195 15.2846 21.2649C15.3491 21.3348 15.4258 21.3903 15.5101 21.4281C15.5945 21.466 15.685 21.4855 15.7764 21.4855L20.638 21.5C20.8222 21.5 20.9988 21.421 21.129 21.2803C21.2592 21.1396 21.3324 20.9489 21.3324 20.7499V13.0616L13.3326 5.94795C13.2385 5.86606 13.1214 5.82141 13.0006 5.82141C12.8798 5.82141 12.7626 5.86606 12.6685 5.94795ZM25.3078 10.7865L21.6796 7.55594V1.06256C21.6796 0.913362 21.6247 0.770272 21.527 0.664771C21.4294 0.55927 21.2969 0.5 21.1588 0.5H18.7284C18.5903 0.5 18.4578 0.55927 18.3602 0.664771C18.2625 0.770272 18.2076 0.913362 18.2076 1.06256V4.46654L14.3221 1.01334C13.9492 0.681886 13.4813 0.500663 12.9984 0.500663C12.5155 0.500663 12.0476 0.681886 11.6747 1.01334L0.689004 10.7865C0.636268 10.8335 0.592638 10.8914 0.560606 10.9567C0.528573 11.022 0.508767 11.0935 0.502318 11.1671C0.49587 11.2406 0.502905 11.3149 0.523023 11.3855C0.543141 11.4561 0.575946 11.5218 0.619565 11.5787L1.72625 13.032C1.76975 13.0892 1.82326 13.1365 1.8837 13.1712C1.94415 13.206 2.01035 13.2276 2.07852 13.2347C2.14669 13.2418 2.21548 13.2343 2.28096 13.2126C2.34645 13.1909 2.40733 13.1555 2.46013 13.1084L12.6685 4.02586C12.7626 3.94397 12.8798 3.89932 13.0006 3.89932C13.1214 3.89932 13.2385 3.94397 13.3326 4.02586L23.5414 13.1084C23.5941 13.1556 23.6549 13.191 23.7203 13.2127C23.7857 13.2345 23.8544 13.2421 23.9225 13.2351C23.9906 13.2281 24.0568 13.2067 24.1173 13.1721C24.1777 13.1375 24.2313 13.0904 24.2749 13.0334L25.3815 11.5801C25.4251 11.5229 25.4578 11.4569 25.4777 11.3859C25.4975 11.315 25.5043 11.2405 25.4974 11.1667C25.4905 11.093 25.4703 11.0214 25.4377 10.9562C25.4052 10.8909 25.361 10.8332 25.3078 10.7865Z" fill="#979797"/>
</svg>
