<svg width="26" height="20" viewBox="0 0 26 20" fill="none" xmlns="http://www.w3.org/2000/svg">
<path d="M1 6.39201V3C1 1.89543 1.89543 1 3 1H23C24.1046 1 25 1.89543 25 3V17C25 18.1046 24.1046 19 23 19H3C1.89543 19 1 18.1046 1 17V12.708C1 12.7036 1.00358 12.7 1.00799 12.7H1.85C3.5897 12.7 5 11.2897 5 9.55C5 7.8103 3.5897 6.4 1.85 6.4H1.00799C1.00358 6.4 1 6.39642 1 6.39201Z" stroke="#666666" stroke-width="1.5" stroke-linecap="round"/>
<path d="M9 4V16" stroke="#666666" stroke-linecap="round" stroke-dasharray="3 3"/>
</svg>
