<svg width="24" height="24" viewBox="0 0 24 24" fill="none" xmlns="http://www.w3.org/2000/svg">
<path d="M3.2002 12.1518V10.1997C3.2002 9.64742 3.64791 9.19971 4.2002 9.19971H18.7002C19.2525 9.19971 19.7002 9.64742 19.7002 10.1997V12.0751C19.7002 12.4856 19.4428 12.8474 19.0333 12.8754C18.641 12.9022 18.1052 12.8846 17.4502 12.7553C15.9502 12.459 15.5752 12.1627 13.7002 12.7553C11.8252 13.3479 11.4502 13.3479 9.9502 12.7553C8.4502 12.1627 8.0752 12.1627 6.2002 12.7553C5.17653 13.0788 4.32751 13.0527 3.77232 12.9408C3.40849 12.8674 3.2002 12.5229 3.2002 12.1518Z" fill="#787878" stroke="#666666" stroke-width="1.5" stroke-linecap="round"/>
<path d="M4.7002 13.1997V18.3997C4.7002 19.5043 5.59563 20.3997 6.7002 20.3997H16.2002C17.3048 20.3997 18.2002 19.5043 18.2002 18.3997V13.1997" stroke="#666666" stroke-width="1.5" stroke-linecap="round"/>
<path d="M11.4502 9.19981V6.7998" stroke="#666666" stroke-width="1.5" stroke-linecap="round"/>
<path d="M10.2246 4.79663L10.608 4.04681C10.9593 3.35983 11.9411 3.35983 12.2924 4.04681L12.6758 4.79663C13.1442 5.71257 12.4789 6.7999 11.4502 6.7999C10.4214 6.7999 9.75622 5.71257 10.2246 4.79663Z" fill="#787878" stroke="#666666" stroke-width="1.5" stroke-linecap="round"/>
</svg>
